<mxfile host="Electron" modified="2024-10-04T16:03:35.346Z" agent="Mozilla/5.0 (Windows NT 10.0; Win64; x64) AppleWebKit/537.36 (KHTML, like Gecko) draw.io/23.0.2 Chrome/120.0.6099.109 Electron/28.1.0 Safari/537.36" etag="CfEZMFUZKBAH1SeGxQIo" version="23.0.2" type="device">
  <diagram name="Page-1" id="hiehJCwvsUua7CjGSmnJ">
    <mxGraphModel dx="1436" dy="1006" grid="0" gridSize="10" guides="1" tooltips="1" connect="1" arrows="1" fold="1" page="0" pageScale="1" pageWidth="827" pageHeight="1169" math="0" shadow="0">
      <root>
        <mxCell id="0" />
        <mxCell id="1" parent="0" />
        <mxCell id="QPADVxnlIXIoXy0uTIt_-3" value="" style="whiteSpace=wrap;html=1;aspect=fixed;" parent="1" vertex="1">
          <mxGeometry x="-87" y="-64.5" width="1008" height="1008" as="geometry" />
        </mxCell>
        <mxCell id="n5yK7r2kHpKYP2_WQRcN-1" value="" style="swimlane;startSize=0;" parent="1" vertex="1">
          <mxGeometry x="95" y="85" width="644" height="709" as="geometry" />
        </mxCell>
        <mxCell id="EGsyVxNRafV6XFAS_uxc-3" value="&lt;font style=&quot;font-size: 50px;&quot;&gt;&lt;b&gt;System&lt;/b&gt;&lt;/font&gt;" style="text;html=1;align=center;verticalAlign=middle;resizable=0;points=[];autosize=1;strokeColor=none;fillColor=default;" parent="n5yK7r2kHpKYP2_WQRcN-1" vertex="1">
          <mxGeometry x="226" width="196" height="72" as="geometry" />
        </mxCell>
        <mxCell id="EGsyVxNRafV6XFAS_uxc-4" value="Subject" style="ellipse;whiteSpace=wrap;html=1;" parent="n5yK7r2kHpKYP2_WQRcN-1" vertex="1">
          <mxGeometry x="166" y="83" width="53" height="26" as="geometry" />
        </mxCell>
        <mxCell id="EGsyVxNRafV6XFAS_uxc-5" value="Dificulty Level" style="ellipse;whiteSpace=wrap;html=1;" parent="n5yK7r2kHpKYP2_WQRcN-1" vertex="1">
          <mxGeometry x="178" y="114" width="78" height="32" as="geometry" />
        </mxCell>
        <mxCell id="EGsyVxNRafV6XFAS_uxc-6" value="Quantity" style="ellipse;whiteSpace=wrap;html=1;" parent="n5yK7r2kHpKYP2_WQRcN-1" vertex="1">
          <mxGeometry x="171" y="151" width="53" height="26" as="geometry" />
        </mxCell>
        <mxCell id="NHSbfe3mQL37GJc6aBrX-5" value="Generate" style="ellipse;whiteSpace=wrap;html=1;direction=west;" parent="n5yK7r2kHpKYP2_WQRcN-1" vertex="1">
          <mxGeometry x="155" y="180" width="61" height="26" as="geometry" />
        </mxCell>
        <mxCell id="NHSbfe3mQL37GJc6aBrX-6" value="Selectes Categaries" style="ellipse;whiteSpace=wrap;html=1;direction=west;" parent="n5yK7r2kHpKYP2_WQRcN-1" vertex="1">
          <mxGeometry x="22" y="119" width="75" height="38" as="geometry" />
        </mxCell>
        <mxCell id="EGsyVxNRafV6XFAS_uxc-27" value="Display&#39;s Quiz" style="ellipse;whiteSpace=wrap;html=1;fillColor=default;" parent="n5yK7r2kHpKYP2_WQRcN-1" vertex="1">
          <mxGeometry x="483" y="502" width="88.5" height="32" as="geometry" />
        </mxCell>
        <mxCell id="EGsyVxNRafV6XFAS_uxc-28" value="Display&#39;s Score &amp;amp; Correct Answers" style="ellipse;whiteSpace=wrap;html=1;" parent="n5yK7r2kHpKYP2_WQRcN-1" vertex="1">
          <mxGeometry x="463.25" y="574" width="128.5" height="39" as="geometry" />
        </mxCell>
        <mxCell id="EGsyVxNRafV6XFAS_uxc-35" value="Generates Quiz using AI-Model" style="ellipse;whiteSpace=wrap;html=1;" parent="n5yK7r2kHpKYP2_WQRcN-1" vertex="1">
          <mxGeometry x="480.38" y="186.5" width="101.25" height="54" as="geometry" />
        </mxCell>
        <mxCell id="EGsyVxNRafV6XFAS_uxc-40" value="Edit" style="ellipse;whiteSpace=wrap;html=1;direction=west;" parent="n5yK7r2kHpKYP2_WQRcN-1" vertex="1">
          <mxGeometry x="52" y="219.5" width="39" height="21" as="geometry" />
        </mxCell>
        <mxCell id="EGsyVxNRafV6XFAS_uxc-41" value="Title" style="ellipse;whiteSpace=wrap;html=1;direction=west;" parent="n5yK7r2kHpKYP2_WQRcN-1" vertex="1">
          <mxGeometry x="86" y="301.37" width="39" height="21" as="geometry" />
        </mxCell>
        <mxCell id="EGsyVxNRafV6XFAS_uxc-42" value="Question" style="ellipse;whiteSpace=wrap;html=1;direction=west;" parent="n5yK7r2kHpKYP2_WQRcN-1" vertex="1">
          <mxGeometry x="271" y="219.5" width="55" height="28" as="geometry" />
        </mxCell>
        <mxCell id="EGsyVxNRafV6XFAS_uxc-43" value="Options" style="ellipse;whiteSpace=wrap;html=1;direction=west;" parent="n5yK7r2kHpKYP2_WQRcN-1" vertex="1">
          <mxGeometry x="244" y="259" width="63" height="22" as="geometry" />
        </mxCell>
        <mxCell id="EGsyVxNRafV6XFAS_uxc-45" value="Delete Question" style="ellipse;whiteSpace=wrap;html=1;direction=west;" parent="n5yK7r2kHpKYP2_WQRcN-1" vertex="1">
          <mxGeometry x="8.25" y="288" width="75.75" height="34.37" as="geometry" />
        </mxCell>
        <mxCell id="EGsyVxNRafV6XFAS_uxc-46" value="Add More" style="ellipse;whiteSpace=wrap;html=1;direction=west;" parent="n5yK7r2kHpKYP2_WQRcN-1" vertex="1">
          <mxGeometry x="211.5" y="288" width="71" height="28" as="geometry" />
        </mxCell>
        <mxCell id="EGsyVxNRafV6XFAS_uxc-49" value="Submit" style="ellipse;whiteSpace=wrap;html=1;direction=west;" parent="n5yK7r2kHpKYP2_WQRcN-1" vertex="1">
          <mxGeometry x="211.5" y="344.5" width="71" height="28" as="geometry" />
        </mxCell>
        <mxCell id="EGsyVxNRafV6XFAS_uxc-17" value="Enter Room ID" style="ellipse;whiteSpace=wrap;html=1;" parent="n5yK7r2kHpKYP2_WQRcN-1" vertex="1">
          <mxGeometry x="27.25" y="522" width="88.5" height="32" as="geometry" />
        </mxCell>
        <mxCell id="EGsyVxNRafV6XFAS_uxc-18" value="Gives Quiz" style="ellipse;whiteSpace=wrap;html=1;" parent="n5yK7r2kHpKYP2_WQRcN-1" vertex="1">
          <mxGeometry x="34.13" y="583" width="74.75" height="28" as="geometry" />
        </mxCell>
        <mxCell id="EGsyVxNRafV6XFAS_uxc-19" value="Submits" style="ellipse;whiteSpace=wrap;html=1;" parent="n5yK7r2kHpKYP2_WQRcN-1" vertex="1">
          <mxGeometry x="39.25" y="628" width="64.5" height="31" as="geometry" />
        </mxCell>
        <mxCell id="EGsyVxNRafV6XFAS_uxc-16" value="Join Quiz" style="ellipse;whiteSpace=wrap;html=1;" parent="n5yK7r2kHpKYP2_WQRcN-1" vertex="1">
          <mxGeometry x="29.75" y="473" width="74" height="29" as="geometry" />
        </mxCell>
        <mxCell id="EGsyVxNRafV6XFAS_uxc-61" value="&lt;b&gt;&lt;font style=&quot;font-size: 8px;&quot;&gt;&amp;lt;&amp;lt;include&amp;gt;&amp;gt;&lt;/font&gt;&lt;/b&gt;" style="endArrow=open;endSize=5;dashed=1;html=1;rounded=0;exitX=0;exitY=0.5;exitDx=0;exitDy=0;startSize=5;entryX=0;entryY=0.5;entryDx=0;entryDy=0;" parent="n5yK7r2kHpKYP2_WQRcN-1" source="NHSbfe3mQL37GJc6aBrX-6" target="EGsyVxNRafV6XFAS_uxc-5" edge="1">
          <mxGeometry x="-0.0155" y="3" width="160" relative="1" as="geometry">
            <mxPoint x="152" y="171" as="sourcePoint" />
            <mxPoint x="312" y="171" as="targetPoint" />
            <mxPoint as="offset" />
          </mxGeometry>
        </mxCell>
        <mxCell id="EGsyVxNRafV6XFAS_uxc-62" value="&lt;b&gt;&lt;font style=&quot;font-size: 8px;&quot;&gt;&amp;lt;&amp;lt;include&amp;gt;&amp;gt;&lt;/font&gt;&lt;/b&gt;" style="endArrow=open;endSize=5;dashed=1;html=1;rounded=0;exitX=0;exitY=0.5;exitDx=0;exitDy=0;startSize=5;entryX=0;entryY=0.5;entryDx=0;entryDy=0;" parent="n5yK7r2kHpKYP2_WQRcN-1" source="NHSbfe3mQL37GJc6aBrX-6" target="EGsyVxNRafV6XFAS_uxc-4" edge="1">
          <mxGeometry x="-0.1605" y="2" width="160" relative="1" as="geometry">
            <mxPoint x="107" y="148" as="sourcePoint" />
            <mxPoint x="148" y="148" as="targetPoint" />
            <mxPoint as="offset" />
          </mxGeometry>
        </mxCell>
        <mxCell id="EGsyVxNRafV6XFAS_uxc-63" value="&lt;b&gt;&lt;font style=&quot;font-size: 8px;&quot;&gt;&amp;lt;&amp;lt;include&amp;gt;&amp;gt;&lt;/font&gt;&lt;/b&gt;" style="endArrow=open;endSize=5;dashed=1;html=1;rounded=0;exitX=0;exitY=0.5;exitDx=0;exitDy=0;startSize=5;entryX=0;entryY=0.5;entryDx=0;entryDy=0;" parent="n5yK7r2kHpKYP2_WQRcN-1" source="NHSbfe3mQL37GJc6aBrX-6" target="EGsyVxNRafV6XFAS_uxc-6" edge="1">
          <mxGeometry x="-0.1605" y="2" width="160" relative="1" as="geometry">
            <mxPoint x="107" y="148" as="sourcePoint" />
            <mxPoint x="160" y="116" as="targetPoint" />
            <mxPoint as="offset" />
          </mxGeometry>
        </mxCell>
        <mxCell id="EGsyVxNRafV6XFAS_uxc-64" value="&lt;b&gt;&lt;font style=&quot;font-size: 8px;&quot;&gt;&amp;lt;&amp;lt;extent&amp;gt;&amp;gt;&lt;/font&gt;&lt;/b&gt;" style="endArrow=open;endSize=5;dashed=1;html=1;rounded=0;exitX=0.5;exitY=1;exitDx=0;exitDy=0;startSize=5;entryX=1;entryY=0;entryDx=0;entryDy=0;" parent="n5yK7r2kHpKYP2_WQRcN-1" source="EGsyVxNRafV6XFAS_uxc-41" target="EGsyVxNRafV6XFAS_uxc-40" edge="1">
          <mxGeometry x="-0.2887" y="1" width="160" relative="1" as="geometry">
            <mxPoint x="258" y="202" as="sourcePoint" />
            <mxPoint x="200" y="233.5" as="targetPoint" />
            <mxPoint as="offset" />
          </mxGeometry>
        </mxCell>
        <mxCell id="EGsyVxNRafV6XFAS_uxc-65" value="&lt;b&gt;&lt;font style=&quot;font-size: 8px;&quot;&gt;&amp;lt;&amp;lt;extent&amp;gt;&amp;gt;&lt;/font&gt;&lt;/b&gt;" style="endArrow=open;endSize=5;dashed=1;html=1;rounded=0;exitX=1;exitY=0.5;exitDx=0;exitDy=0;startSize=5;entryX=0;entryY=0.5;entryDx=0;entryDy=0;" parent="n5yK7r2kHpKYP2_WQRcN-1" source="EGsyVxNRafV6XFAS_uxc-42" target="EGsyVxNRafV6XFAS_uxc-40" edge="1">
          <mxGeometry x="-0.1605" y="2" width="160" relative="1" as="geometry">
            <mxPoint x="249" y="233.5" as="sourcePoint" />
            <mxPoint x="200" y="233.5" as="targetPoint" />
            <mxPoint as="offset" />
          </mxGeometry>
        </mxCell>
        <mxCell id="EGsyVxNRafV6XFAS_uxc-66" value="&lt;b&gt;&lt;font style=&quot;font-size: 8px;&quot;&gt;&amp;lt;&amp;lt;extent&amp;gt;&amp;gt;&lt;/font&gt;&lt;/b&gt;" style="endArrow=open;endSize=5;dashed=1;html=1;rounded=0;exitX=1;exitY=0.5;exitDx=0;exitDy=0;startSize=5;entryX=0.066;entryY=0.238;entryDx=0;entryDy=0;entryPerimeter=0;" parent="n5yK7r2kHpKYP2_WQRcN-1" source="EGsyVxNRafV6XFAS_uxc-43" target="EGsyVxNRafV6XFAS_uxc-40" edge="1">
          <mxGeometry x="-0.1605" y="2" width="160" relative="1" as="geometry">
            <mxPoint x="262" y="265.5" as="sourcePoint" />
            <mxPoint x="200" y="233.5" as="targetPoint" />
            <mxPoint as="offset" />
          </mxGeometry>
        </mxCell>
        <mxCell id="EGsyVxNRafV6XFAS_uxc-79" value="Copy to Clipboard" style="ellipse;whiteSpace=wrap;html=1;" parent="n5yK7r2kHpKYP2_WQRcN-1" vertex="1">
          <mxGeometry x="68" y="372.5" width="103" height="42" as="geometry" />
        </mxCell>
        <mxCell id="EGsyVxNRafV6XFAS_uxc-80" value="View Results" style="ellipse;whiteSpace=wrap;html=1;" parent="n5yK7r2kHpKYP2_WQRcN-1" vertex="1">
          <mxGeometry x="163" y="409" width="83" height="36" as="geometry" />
        </mxCell>
        <mxCell id="EGsyVxNRafV6XFAS_uxc-81" value="Home" style="ellipse;whiteSpace=wrap;html=1;" parent="n5yK7r2kHpKYP2_WQRcN-1" vertex="1">
          <mxGeometry x="254" y="414.5" width="49" height="24" as="geometry" />
        </mxCell>
        <mxCell id="EGsyVxNRafV6XFAS_uxc-26" value="Generates&amp;nbsp; Room ID" style="ellipse;whiteSpace=wrap;html=1;" parent="n5yK7r2kHpKYP2_WQRcN-1" vertex="1">
          <mxGeometry x="483" y="414" width="83.25" height="44" as="geometry" />
        </mxCell>
        <mxCell id="EGsyVxNRafV6XFAS_uxc-84" value="&lt;font style=&quot;font-size: 8px;&quot;&gt;&lt;b&gt;&amp;lt;&amp;lt;extend&amp;gt;&amp;gt;&lt;/b&gt;&lt;/font&gt;" style="endArrow=open;endSize=5;dashed=1;html=1;rounded=0;entryX=0.5;entryY=0;entryDx=0;entryDy=0;exitX=0.5;exitY=0;exitDx=0;exitDy=0;strokeWidth=1;startSize=5;movable=1;resizable=1;rotatable=1;deletable=1;editable=1;locked=0;connectable=1;" parent="n5yK7r2kHpKYP2_WQRcN-1" source="EGsyVxNRafV6XFAS_uxc-81" target="EGsyVxNRafV6XFAS_uxc-49" edge="1">
          <mxGeometry x="0.2162" width="160" relative="1" as="geometry">
            <mxPoint x="135" y="424" as="sourcePoint" />
            <mxPoint x="329" y="503" as="targetPoint" />
            <mxPoint as="offset" />
          </mxGeometry>
        </mxCell>
        <mxCell id="EGsyVxNRafV6XFAS_uxc-82" value="&lt;font style=&quot;font-size: 8px;&quot;&gt;&lt;b&gt;&amp;lt;&amp;lt;extend&amp;gt;&amp;gt;&lt;/b&gt;&lt;/font&gt;" style="endArrow=open;endSize=5;dashed=1;html=1;rounded=0;entryX=1;entryY=0.5;entryDx=0;entryDy=0;strokeWidth=1;startSize=5;exitX=1;exitY=0;exitDx=0;exitDy=0;movable=1;resizable=1;rotatable=1;deletable=1;editable=1;locked=0;connectable=1;" parent="n5yK7r2kHpKYP2_WQRcN-1" source="EGsyVxNRafV6XFAS_uxc-79" target="EGsyVxNRafV6XFAS_uxc-49" edge="1">
          <mxGeometry x="0.2162" width="160" relative="1" as="geometry">
            <mxPoint x="309" y="316" as="sourcePoint" />
            <mxPoint x="323" y="335" as="targetPoint" />
            <mxPoint as="offset" />
          </mxGeometry>
        </mxCell>
        <mxCell id="EGsyVxNRafV6XFAS_uxc-83" value="&lt;font style=&quot;font-size: 8px;&quot;&gt;&lt;b&gt;&amp;lt;&amp;lt;extend&amp;gt;&amp;gt;&lt;/b&gt;&lt;/font&gt;" style="endArrow=open;endSize=5;dashed=1;html=1;rounded=0;entryX=1;entryY=0;entryDx=0;entryDy=0;strokeWidth=1;startSize=5;exitX=0.5;exitY=0;exitDx=0;exitDy=0;movable=1;resizable=1;rotatable=1;deletable=1;editable=1;locked=0;connectable=1;" parent="n5yK7r2kHpKYP2_WQRcN-1" source="EGsyVxNRafV6XFAS_uxc-80" target="EGsyVxNRafV6XFAS_uxc-49" edge="1">
          <mxGeometry x="0.2162" width="160" relative="1" as="geometry">
            <mxPoint x="125" y="414" as="sourcePoint" />
            <mxPoint x="318" y="332" as="targetPoint" />
            <mxPoint as="offset" />
          </mxGeometry>
        </mxCell>
        <mxCell id="EGsyVxNRafV6XFAS_uxc-25" value="Add&#39;s Quiz to Records" style="ellipse;whiteSpace=wrap;html=1;" parent="n5yK7r2kHpKYP2_WQRcN-1" vertex="1">
          <mxGeometry x="483" y="351" width="96" height="45" as="geometry" />
        </mxCell>
        <mxCell id="EGsyVxNRafV6XFAS_uxc-88" value="Generates One more Question using AI-Model" style="ellipse;whiteSpace=wrap;html=1;" parent="n5yK7r2kHpKYP2_WQRcN-1" vertex="1">
          <mxGeometry x="463.25" y="275.5" width="150.06" height="53" as="geometry" />
        </mxCell>
        <mxCell id="EGsyVxNRafV6XFAS_uxc-29" value="Admin" style="shape=umlActor;verticalLabelPosition=bottom;verticalAlign=top;html=1;outlineConnect=0;" parent="n5yK7r2kHpKYP2_WQRcN-1" vertex="1">
          <mxGeometry x="762" y="283" width="30" height="60" as="geometry" />
        </mxCell>
        <mxCell id="EGsyVxNRafV6XFAS_uxc-30" value="" style="endArrow=none;html=1;rounded=0;entryX=0.5;entryY=0.5;entryDx=0;entryDy=0;exitX=1;exitY=0.5;exitDx=0;exitDy=0;entryPerimeter=0;" parent="n5yK7r2kHpKYP2_WQRcN-1" source="EGsyVxNRafV6XFAS_uxc-25" target="EGsyVxNRafV6XFAS_uxc-29" edge="1">
          <mxGeometry width="50" height="50" relative="1" as="geometry">
            <mxPoint x="610.37" y="305" as="sourcePoint" />
            <mxPoint x="794.37" y="264" as="targetPoint" />
          </mxGeometry>
        </mxCell>
        <mxCell id="EGsyVxNRafV6XFAS_uxc-31" value="" style="endArrow=none;html=1;rounded=0;entryX=0.5;entryY=0.5;entryDx=0;entryDy=0;exitX=1;exitY=0.5;exitDx=0;exitDy=0;entryPerimeter=0;" parent="n5yK7r2kHpKYP2_WQRcN-1" source="EGsyVxNRafV6XFAS_uxc-26" target="EGsyVxNRafV6XFAS_uxc-29" edge="1">
          <mxGeometry width="50" height="50" relative="1" as="geometry">
            <mxPoint x="663.37" y="244" as="sourcePoint" />
            <mxPoint x="867.37" y="311" as="targetPoint" />
          </mxGeometry>
        </mxCell>
        <mxCell id="EGsyVxNRafV6XFAS_uxc-32" value="" style="endArrow=none;html=1;rounded=0;entryX=0.5;entryY=0.5;entryDx=0;entryDy=0;exitX=1;exitY=0.5;exitDx=0;exitDy=0;entryPerimeter=0;" parent="n5yK7r2kHpKYP2_WQRcN-1" source="EGsyVxNRafV6XFAS_uxc-27" target="EGsyVxNRafV6XFAS_uxc-29" edge="1">
          <mxGeometry width="50" height="50" relative="1" as="geometry">
            <mxPoint x="656.37" y="304" as="sourcePoint" />
            <mxPoint x="867.37" y="311" as="targetPoint" />
          </mxGeometry>
        </mxCell>
        <mxCell id="EGsyVxNRafV6XFAS_uxc-33" value="" style="endArrow=none;html=1;rounded=0;entryX=0.5;entryY=0.5;entryDx=0;entryDy=0;exitX=1;exitY=0.5;exitDx=0;exitDy=0;entryPerimeter=0;" parent="n5yK7r2kHpKYP2_WQRcN-1" source="EGsyVxNRafV6XFAS_uxc-28" target="EGsyVxNRafV6XFAS_uxc-29" edge="1">
          <mxGeometry width="50" height="50" relative="1" as="geometry">
            <mxPoint x="661.37" y="444" as="sourcePoint" />
            <mxPoint x="867.37" y="311" as="targetPoint" />
          </mxGeometry>
        </mxCell>
        <mxCell id="EGsyVxNRafV6XFAS_uxc-34" value="" style="endArrow=none;html=1;rounded=0;entryX=0.5;entryY=0.5;entryDx=0;entryDy=0;exitX=1;exitY=0.5;exitDx=0;exitDy=0;entryPerimeter=0;" parent="n5yK7r2kHpKYP2_WQRcN-1" source="EGsyVxNRafV6XFAS_uxc-35" target="EGsyVxNRafV6XFAS_uxc-29" edge="1">
          <mxGeometry width="50" height="50" relative="1" as="geometry">
            <mxPoint x="620.37" y="315" as="sourcePoint" />
            <mxPoint x="787" y="337" as="targetPoint" />
          </mxGeometry>
        </mxCell>
        <mxCell id="EGsyVxNRafV6XFAS_uxc-89" value="" style="endArrow=none;html=1;rounded=0;entryX=0.5;entryY=0.5;entryDx=0;entryDy=0;exitX=1;exitY=0.5;exitDx=0;exitDy=0;entryPerimeter=0;" parent="n5yK7r2kHpKYP2_WQRcN-1" source="EGsyVxNRafV6XFAS_uxc-88" target="EGsyVxNRafV6XFAS_uxc-29" edge="1">
          <mxGeometry width="50" height="50" relative="1" as="geometry">
            <mxPoint x="616" y="172" as="sourcePoint" />
            <mxPoint x="804" y="341" as="targetPoint" />
          </mxGeometry>
        </mxCell>
        <mxCell id="cMAb08nYdSKNLdIepgWL-3" value="&lt;b&gt;&lt;font style=&quot;font-size: 8px;&quot;&gt;&amp;lt;&amp;lt;include&amp;gt;&amp;gt;&lt;/font&gt;&lt;/b&gt;" style="endArrow=open;endSize=5;dashed=1;html=1;rounded=0;exitX=0;exitY=0.5;exitDx=0;exitDy=0;startSize=5;entryX=1;entryY=0.5;entryDx=0;entryDy=0;" parent="n5yK7r2kHpKYP2_WQRcN-1" source="NHSbfe3mQL37GJc6aBrX-6" target="NHSbfe3mQL37GJc6aBrX-5" edge="1">
          <mxGeometry x="-0.1589" y="2" width="160" relative="1" as="geometry">
            <mxPoint x="104" y="196" as="sourcePoint" />
            <mxPoint x="325" y="196" as="targetPoint" />
            <mxPoint as="offset" />
          </mxGeometry>
        </mxCell>
        <mxCell id="cMAb08nYdSKNLdIepgWL-6" value="&lt;b&gt;&lt;font style=&quot;font-size: 8px;&quot;&gt;&amp;lt;&amp;lt;extent&amp;gt;&amp;gt;&lt;/font&gt;&lt;/b&gt;" style="endArrow=open;endSize=5;dashed=1;html=1;rounded=0;exitX=0.5;exitY=1;exitDx=0;exitDy=0;startSize=5;entryX=1;entryY=0.5;entryDx=0;entryDy=0;" parent="n5yK7r2kHpKYP2_WQRcN-1" source="EGsyVxNRafV6XFAS_uxc-45" target="EGsyVxNRafV6XFAS_uxc-40" edge="1">
          <mxGeometry x="-0.1983" y="-3" width="160" relative="1" as="geometry">
            <mxPoint x="160" y="296" as="sourcePoint" />
            <mxPoint x="67" y="247" as="targetPoint" />
            <mxPoint as="offset" />
          </mxGeometry>
        </mxCell>
        <mxCell id="cMAb08nYdSKNLdIepgWL-7" value="&lt;b&gt;&lt;font style=&quot;font-size: 8px;&quot;&gt;&amp;lt;&amp;lt;extent&amp;gt;&amp;gt;&lt;/font&gt;&lt;/b&gt;" style="endArrow=open;endSize=5;dashed=1;html=1;rounded=0;exitX=1;exitY=1;exitDx=0;exitDy=0;startSize=5;entryX=0.289;entryY=0.027;entryDx=0;entryDy=0;entryPerimeter=0;" parent="n5yK7r2kHpKYP2_WQRcN-1" source="EGsyVxNRafV6XFAS_uxc-46" target="EGsyVxNRafV6XFAS_uxc-40" edge="1">
          <mxGeometry x="0.3611" y="-3" width="160" relative="1" as="geometry">
            <mxPoint x="170" y="306" as="sourcePoint" />
            <mxPoint x="77" y="257" as="targetPoint" />
            <mxPoint as="offset" />
          </mxGeometry>
        </mxCell>
        <mxCell id="cMAb08nYdSKNLdIepgWL-8" value="&lt;b&gt;&lt;font style=&quot;font-size: 8px;&quot;&gt;&amp;lt;&amp;lt;include&amp;gt;&amp;gt;&lt;/font&gt;&lt;/b&gt;" style="endArrow=open;endSize=5;dashed=1;html=1;rounded=0;exitX=0.57;exitY=-0.048;exitDx=0;exitDy=0;startSize=5;entryX=1;entryY=1;entryDx=0;entryDy=0;exitPerimeter=0;" parent="n5yK7r2kHpKYP2_WQRcN-1" source="EGsyVxNRafV6XFAS_uxc-40" target="EGsyVxNRafV6XFAS_uxc-49" edge="1">
          <mxGeometry x="-0.1905" y="4" width="160" relative="1" as="geometry">
            <mxPoint x="95" y="247" as="sourcePoint" />
            <mxPoint x="232" y="302" as="targetPoint" />
            <mxPoint as="offset" />
          </mxGeometry>
        </mxCell>
        <mxCell id="cMAb08nYdSKNLdIepgWL-10" value="View Room ID" style="ellipse;whiteSpace=wrap;html=1;" parent="n5yK7r2kHpKYP2_WQRcN-1" vertex="1">
          <mxGeometry x="306" y="402" width="80" height="35" as="geometry" />
        </mxCell>
        <mxCell id="cMAb08nYdSKNLdIepgWL-11" value="&lt;font style=&quot;font-size: 8px;&quot;&gt;&lt;b&gt;&amp;lt;&amp;lt;extend&amp;gt;&amp;gt;&lt;/b&gt;&lt;/font&gt;" style="endArrow=open;endSize=5;dashed=1;html=1;rounded=0;entryX=0;entryY=0;entryDx=0;entryDy=0;strokeWidth=1;startSize=5;exitX=0.5;exitY=0;exitDx=0;exitDy=0;movable=1;resizable=1;rotatable=1;deletable=1;editable=1;locked=0;connectable=1;" parent="n5yK7r2kHpKYP2_WQRcN-1" source="cMAb08nYdSKNLdIepgWL-10" target="EGsyVxNRafV6XFAS_uxc-49" edge="1">
          <mxGeometry x="0.2331" width="160" relative="1" as="geometry">
            <mxPoint x="429" y="448.2" as="sourcePoint" />
            <mxPoint x="363.85825969241273" y="369.99750942661393" as="targetPoint" />
            <mxPoint as="offset" />
          </mxGeometry>
        </mxCell>
        <mxCell id="L1sKtiPwGohohcsykyO--1" value="&lt;b&gt;&lt;font style=&quot;font-size: 8px;&quot;&gt;&amp;lt;&amp;lt;extent&amp;gt;&amp;gt;&lt;/font&gt;&lt;/b&gt;" style="endArrow=open;endSize=5;dashed=1;html=1;rounded=0;exitX=0.5;exitY=1;exitDx=0;exitDy=0;startSize=5;entryX=0;entryY=0;entryDx=0;entryDy=0;" parent="n5yK7r2kHpKYP2_WQRcN-1" source="L1sKtiPwGohohcsykyO--2" target="NHSbfe3mQL37GJc6aBrX-6" edge="1">
          <mxGeometry x="-0.1605" y="2" width="160" relative="1" as="geometry">
            <mxPoint x="38.75" y="91.25" as="sourcePoint" />
            <mxPoint x="-160.75" y="-33.25" as="targetPoint" />
            <mxPoint as="offset" />
          </mxGeometry>
        </mxCell>
        <mxCell id="L1sKtiPwGohohcsykyO--2" value="Home" style="ellipse;whiteSpace=wrap;html=1;direction=west;" parent="n5yK7r2kHpKYP2_WQRcN-1" vertex="1">
          <mxGeometry x="91" y="191.5" width="49" height="24.5" as="geometry" />
        </mxCell>
        <mxCell id="bYDzssbc0e7Pt4jrvGXA-1" value="&lt;b&gt;&lt;font style=&quot;font-size: 8px;&quot;&gt;&amp;lt;&amp;lt;extent&amp;gt;&amp;gt;&lt;/font&gt;&lt;/b&gt;" style="endArrow=open;endSize=5;dashed=1;html=1;rounded=0;exitX=0.5;exitY=0;exitDx=0;exitDy=0;startSize=5;entryX=0.5;entryY=1;entryDx=0;entryDy=0;" parent="n5yK7r2kHpKYP2_WQRcN-1" source="bYDzssbc0e7Pt4jrvGXA-2" target="EGsyVxNRafV6XFAS_uxc-40" edge="1">
          <mxGeometry x="-0.1605" y="2" width="160" relative="1" as="geometry">
            <mxPoint x="-17.25" y="81.25" as="sourcePoint" />
            <mxPoint x="5.5" y="199.5" as="targetPoint" />
            <mxPoint as="offset" />
          </mxGeometry>
        </mxCell>
        <mxCell id="bYDzssbc0e7Pt4jrvGXA-2" value="Cancel" style="ellipse;whiteSpace=wrap;html=1;direction=west;" parent="n5yK7r2kHpKYP2_WQRcN-1" vertex="1">
          <mxGeometry x="19" y="167" width="49" height="24.5" as="geometry" />
        </mxCell>
        <mxCell id="n5yK7r2kHpKYP2_WQRcN-4" value="Teacher" style="shape=umlActor;verticalLabelPosition=bottom;verticalAlign=top;html=1;outlineConnect=0;direction=east;" parent="1" vertex="1">
          <mxGeometry x="-51" y="193" width="30" height="60" as="geometry" />
        </mxCell>
        <mxCell id="NHSbfe3mQL37GJc6aBrX-14" value="" style="endArrow=none;html=1;rounded=0;exitX=1;exitY=0.5;exitDx=0;exitDy=0;entryX=0.5;entryY=0.5;entryDx=0;entryDy=0;entryPerimeter=0;" parent="1" source="NHSbfe3mQL37GJc6aBrX-6" target="n5yK7r2kHpKYP2_WQRcN-4" edge="1">
          <mxGeometry width="50" height="50" relative="1" as="geometry">
            <mxPoint x="842" y="304.25" as="sourcePoint" />
            <mxPoint x="1012" y="246.25" as="targetPoint" />
          </mxGeometry>
        </mxCell>
        <mxCell id="EGsyVxNRafV6XFAS_uxc-20" value="Student" style="shape=umlActor;verticalLabelPosition=bottom;verticalAlign=top;html=1;outlineConnect=0;" parent="1" vertex="1">
          <mxGeometry x="-27" y="582.5" width="30" height="60" as="geometry" />
        </mxCell>
        <mxCell id="EGsyVxNRafV6XFAS_uxc-21" value="" style="endArrow=none;html=1;rounded=0;entryX=0;entryY=0.5;entryDx=0;entryDy=0;exitX=0.5;exitY=0.5;exitDx=0;exitDy=0;exitPerimeter=0;" parent="1" source="EGsyVxNRafV6XFAS_uxc-20" target="EGsyVxNRafV6XFAS_uxc-16" edge="1">
          <mxGeometry width="50" height="50" relative="1" as="geometry">
            <mxPoint x="-22" y="554" as="sourcePoint" />
            <mxPoint x="145" y="482" as="targetPoint" />
          </mxGeometry>
        </mxCell>
        <mxCell id="cMAb08nYdSKNLdIepgWL-15" value="" style="endArrow=none;html=1;rounded=0;exitX=0;exitY=0.5;exitDx=0;exitDy=0;entryX=0.5;entryY=0.5;entryDx=0;entryDy=0;entryPerimeter=0;" parent="1" source="EGsyVxNRafV6XFAS_uxc-18" target="EGsyVxNRafV6XFAS_uxc-20" edge="1">
          <mxGeometry width="50" height="50" relative="1" as="geometry">
            <mxPoint x="127" y="233" as="sourcePoint" />
            <mxPoint x="-26" y="233" as="targetPoint" />
          </mxGeometry>
        </mxCell>
        <mxCell id="cMAb08nYdSKNLdIepgWL-16" value="" style="endArrow=none;html=1;rounded=0;exitX=1;exitY=0.5;exitDx=0;exitDy=0;entryX=0.5;entryY=0.5;entryDx=0;entryDy=0;entryPerimeter=0;" parent="1" source="EGsyVxNRafV6XFAS_uxc-40" target="n5yK7r2kHpKYP2_WQRcN-4" edge="1">
          <mxGeometry width="50" height="50" relative="1" as="geometry">
            <mxPoint x="127" y="233" as="sourcePoint" />
            <mxPoint x="-26" y="233" as="targetPoint" />
          </mxGeometry>
        </mxCell>
        <mxCell id="QPADVxnlIXIoXy0uTIt_-1" value="" style="endArrow=none;html=1;rounded=0;exitX=0;exitY=0.5;exitDx=0;exitDy=0;entryX=0.5;entryY=0.5;entryDx=0;entryDy=0;entryPerimeter=0;" parent="1" source="EGsyVxNRafV6XFAS_uxc-19" target="EGsyVxNRafV6XFAS_uxc-20" edge="1">
          <mxGeometry width="50" height="50" relative="1" as="geometry">
            <mxPoint x="147" y="704" as="sourcePoint" />
            <mxPoint x="-2" y="623" as="targetPoint" />
          </mxGeometry>
        </mxCell>
        <mxCell id="QPADVxnlIXIoXy0uTIt_-2" value="" style="endArrow=none;html=1;rounded=0;entryX=0;entryY=0.5;entryDx=0;entryDy=0;exitX=0.5;exitY=0.5;exitDx=0;exitDy=0;exitPerimeter=0;" parent="1" source="EGsyVxNRafV6XFAS_uxc-20" target="EGsyVxNRafV6XFAS_uxc-17" edge="1">
          <mxGeometry width="50" height="50" relative="1" as="geometry">
            <mxPoint x="-2" y="623" as="sourcePoint" />
            <mxPoint x="135" y="583" as="targetPoint" />
          </mxGeometry>
        </mxCell>
      </root>
    </mxGraphModel>
  </diagram>
</mxfile>
